<?xml version="1.0" encoding="UTF-8"?><svg id="Layer_1" xmlns="http://www.w3.org/2000/svg" viewBox="0 0 187.4 187.4"><defs><style>.cls-1{fill:#fafafc;stroke:#eb57f7;stroke-miterlimit:10;stroke-width:13px;}.cls-2{fill:#6c06fc;}</style></defs><g id="Layer_2"><circle class="cls-1" cx="93.7" cy="93.7" r="87.2"/></g><g id="Layer_1-2"><path class="cls-2" d="m93.4,139.1h-27.7c-1,0-1.4.2-1.3,1.3.1,2.6.2,5.3.1,7.9-.2,3.4-.9,6.7-4.2,8.6-2.9,1.7-6.3,1.9-9.5-.5-2.3-1.7-3-4-3.3-6.5-.3-3.1-.2-6.2-.2-9.4,0-1.1-.4-1.4-1.3-1.4h-5.2c-1.6,0-2.2-.6-2.2-2.2,0-15.1-.1-30.2.1-45.2.1-6.4.9-12.8,1.4-19.2.1-2.1.1-4.2.3-6.3.3-3.6.8-7.3,1.2-10.9.4-3.3.8-6.6,1.3-9.9.5-2.6.9-5.3,1.9-7.6.8-1.7,2.4-3.2,4-4.3,2.8-2,5.7-4,8.9-5.4,3.1-1.4,6.4-2.3,9.7-3,5.2-1.1,10.4-1.9,15.6-2.8,1-.2,2-.3,3.1-.3,3.9-.1,7.9-.3,11.8-.1,4.3.2,8.5.7,12.8,1.4,4,.6,7.9,1.3,11.8,2.3,5.9,1.6,11.5,4,16.3,7.9,3.1,2.6,4.8,5.8,5.4,9.8.5,3.6,1.4,7.1,2,10.7.4,2.2.5,4.4.7,6.6.5,4.9,1,9.8,1.5,14.6.1,1.3,0,2.6,0,4,.2,6.4.6,12.8.7,19.2.3,10.5.5,21.1.7,31.6,0,1.9-.1,3.7-.2,5.6-.1,2.1-1.7,3.5-4.1,3.6-1.3,0-2.7,0-4,.1-.3,0-.8.6-.8.9-.1,2.8,0,5.6-.1,8.4-.1,2.5-.5,5-2.5,6.8-3.5,3.2-7.7,4-11.9,1-2.6-1.9-3.4-4.4-3.6-7.3s-.1-5.8,0-8.7c0-.9-.2-1.1-1.1-1.1-9.5-.2-18.8-.2-28.1-.2Zm4.7-49h35.4c2.5,0,4.7-2.1,4.6-4.5-.1-1-.2-2-.3-2.9-.5-3.7-.9-7.5-1.4-11.2-.2-1.7-.3-3.4-.5-5.2-.4-3.1-.8-6.1-1.2-9.1-.3-2.2-1.2-4.1-3.1-5.2-2.5-1.4-5.2-1.8-8-1.8-10.6.1-21.1.1-31.7.1-3.9,0-7.7-.2-11.6-.3h-4.4c-5.1,0-10.3-.2-15.4.1-3.6.2-7.7,2.9-8.1,7.4-.2,2-.4,4.1-.6,6.1-.4,3.7-.9,7.4-1.3,11.1-.4,3.3-.6,6.6-1.1,9.8-.4,3,1.5,5.5,4.5,5.5h10.6c11.2.1,22.4.1,33.6.1Zm-3.6-50h19.4c2,0,3.7-1.1,4.3-2.6.3-.9.3-1.4-.9-1.3-2.3.1-4.5.2-6.8.1-9.9,0-19.7-.1-29.6-.2-3.6,0-7.3,0-10.9.1-.3,0-.8.6-.8.6.5.7.9,1.7,1.6,2,1.5.6,3.1,1.2,4.7,1.2,6.4.2,12.7.1,19,.1Zm-42.9,70.9c-.5,3.9,4.3,7.3,6.9,7,3.8-.4,7.4-2.6,7.4-7.1s-3.4-7.2-6.8-7.3c-4.4,0-7.6,3.1-7.5,7.4Zm70-.4c0,4.5,2.8,7.1,7.2,7.3,3.5.2,6.9-4,7-6.8.1-4-3.6-7.5-7.1-7.3-3.9.2-7.1,3.1-7.1,6.8Z"/></g></svg>