<?xml version="1.0" encoding="UTF-8"?>
<svg id="Layer_1" data-name="Layer 1" xmlns="http://www.w3.org/2000/svg" viewBox="0 0 385.17 166.711">
  <defs>
    <style>
      .cls-1 {
        fill: #dddce5;
      }
    </style>
  </defs>
  <path class="cls-1" d="M44.426,108.545c-1.224,16.338-1.832,34.658-1.832,54.961-.612,1.373-4.888,2.061-12.824,2.061h-10.305c-3.36,0-6.108-.079-8.244-.229l-5.267.229c-1.682,0-2.902-.154-3.664-.458-.766-.308-1.453-.995-2.061-2.061l-.229-60.456.229-30.916c.304-13.74.458-24.12.458-31.144V8.244l.687-1.374c2.44-.762,4.999-1.295,7.671-1.603,2.669-.304,5.228-.494,7.671-.573,2.44-.075,4.043-.114,4.809-.114l8.015-.458c13.128-1.066,24.653-1.603,34.579-1.603,15.418,0,28.854,1.299,40.304,3.893,1.066,2.29,1.603,10.23,1.603,23.816,0,4.734-.229,7.711-.687,8.931v2.29c-.612,1.374-3.818,2.061-9.618,2.061h-3.435c-20.917,0-37.022.841-48.319,2.519-1.374,3.514-2.061,6.87-2.061,10.076s.494,5.496,1.489,6.87c.991,1.374,2.44,2.254,4.351,2.633,1.907.383,4.845.572,8.816.572,5.646,0,11.067-.458,16.259-1.374.916,1.07,1.524,2.254,1.832,3.55.304,1.299.458,3.245.458,5.839s-.154,6.337-.458,11.221c-.308,4.276-.458,7.024-.458,8.244,0,.308.075,1.109.229,2.404.15,1.299.229,3.092.229,5.382,0,1.224-.039,1.946-.114,2.176-.079.229-.498.727-1.26,1.488h-.229c-5.496.916-15.039,2.061-28.625,3.435ZM71.448,96.638c0-2.29.075-4.352.229-6.183.15-1.832.304-3.435.458-4.809.458-3.968.687-7.632.687-10.992,0-3.206-.308-5.646-.916-7.328-4.58.766-9.697,1.145-15.343,1.145-4.43,0-7.75-.229-9.961-.687-2.215-.458-3.933-1.488-5.153-3.091-1.224-1.603-1.832-4.236-1.832-7.9,0-2.44.304-5.074.916-7.9.608-2.823,1.449-4.466,2.519-4.924,6.87-1.066,17.325-1.753,31.373-2.061l15.801-.687h6.068c2.669,0,4.923-.229,6.755-.687,0-1.066.075-1.907.229-2.519l-.229-29.541c-11.908-2.594-25.802-3.893-41.678-3.893-16.642,0-36.107,1.453-58.395,4.351l-.229,76.944c-.154,17.1-.229,42.672-.229,76.715,6.104.766,11.829,1.145,17.175,1.145,6.412,0,13.282-.379,20.61-1.145,0-20.61.608-39.081,1.832-55.419l1.145-.915h.916l.458-.688v.688c1.066-.15,2.211-.344,3.435-.573,1.22-.229,2.519-.418,3.893-.572l6.87-.687c1.524-.15,3.396-.305,5.61-.458,2.211-.15,4.77-.458,7.671-.916-.458-1.832-.687-3.969-.687-6.412Z"/>
  <path class="cls-1" d="M156.862,34.579c-.154,9.16-.308,16.717-.458,22.671-.612,24.124-.916,42.29-.916,54.501,0,20.307.458,37.252,1.374,50.839-1.374,1.373-3.131,2.325-5.267,2.862-2.14.533-4.809.801-8.015.801-3.056,0-7.482-.308-13.282-.916-1.528-.153-3.17-.308-4.923-.458-1.757-.153-3.55-.229-5.382-.229-2.29,0-3.972.229-5.038.687l-2.061-.916c.608-11.6.916-24.578.916-38.93,0-13.432-.229-26.793-.687-40.075-.154-4.58-.308-10.266-.458-17.061-.154-6.792-.229-14.771-.229-23.931,0-7.632.229-15.343.687-23.129.608-12.67,1.524-19.615,2.748-20.839,4.272,0,8.548.229,12.824.687,1.524.154,3.356.308,5.496.458,2.136.154,4.655.229,7.557.229l14.198-.229,1.145,1.145c0,12.062-.079,22.671-.229,31.831ZM153.427,80.608c.15-9.006.304-16.488.458-22.442.608-24.12.916-42.211.916-54.273l-13.282.229c-1.832,0-4.008-.075-6.527-.229-2.519-.15-4.39-.304-5.61-.458-4.122-.458-8.244-.687-12.366-.687-1.374,11.604-2.061,25.04-2.061,40.304,0,8.094.075,15.229.229,21.412.15,6.183.304,11.26.458,15.229.458,12.062.687,24.274.687,36.64,0,13.74-.383,29.391-1.145,46.945,2.136-.304,4.043-.458,5.725-.458,1.832,0,5.188.154,10.076.458,5.188.308,9.082.458,11.679.458,1.678,0,4.043-.304,7.099-.916,1.678-.458,3.281-.687,4.809-.687-.916-13.433-1.374-30.149-1.374-50.151,0-11.908.075-22.363.229-31.373Z"/>
  <path class="cls-1" d="M239.758,164.193l-7.557-16.259c-5.65-11.296-10.076-20.989-13.281-29.083-1.986-4.58-3.818-9.539-5.496-14.885l-5.268-13.74c-.916,10.076-1.375,23.129-1.375,39.159v15.343c0,8.552.23,14.885.688,19.007-1.223,1.22-3.092,2.021-5.609,2.404-2.52.38-5.461.572-8.817.572s-7.292-.343-11.793-1.03c-4.505-.687-7.213-1.488-8.129-2.404,0-10.076-.154-25.34-.458-45.8-.308-20.152-.458-35.341-.458-45.571,0-26.714.762-49.614,2.29-68.7,2.748-1.374,6.333-2.061,10.763-2.061,1.066,0,2.061.154,2.977.458,5.039,0,9.082.114,12.136.343,3.053.229,4.961,1.109,5.727,2.634,0,1.224.607,3.091,1.832,5.61,1.219,2.519,2.594,5.077,4.121,7.671,1.525,2.444,2.898,4.888,4.123,7.328,1.219,2.444,1.832,4.201,1.832,5.267.457,1.528,1.752,4.201,3.893,8.015l2.748,5.038c.457,1.07,2.748,5.725,6.869,13.969l4.352,8.702c.607-4.884.916-10.38.916-16.488,0-3.968-.154-9.768-.459-17.404-.457-5.8-.686-11.601-.686-17.404,0-4.272.229-8.473.686-12.595,2.137-1.066,4.617-1.718,7.443-1.947,2.822-.229,6.219-.343,10.189-.343,9.924,0,15.344.841,16.26,2.519l.229,161.216-1.145,1.145h-.229c-1.682.763-4.123,1.146-7.328,1.146-2.443,0-5.955-.154-10.535-.458-3.359-.458-6.869-.688-10.533-.688l-.916-.687ZM267.926,3.435c-5.346-.762-10.076-1.145-14.199-1.145-4.43,0-9.467.383-15.113,1.145-.459,5.038-.688,10-.688,14.885,0,4.43.15,11.071.459,19.923.457,6.566.686,13.361.686,20.381,0,2.748-.193,5.038-.572,6.87-.383,1.832-1.109,3.285-2.176,4.351h-.229c-1.986,0-5.879-7.02-11.68-21.068l-1.832-4.351c-.457-.916-1.682-2.898-3.662-5.954-1.986-3.052-3.057-5.571-3.207-7.557l-4.352-8.702c-4.58-8.548-7.098-14.119-7.557-16.717-1.373-.304-4.352-.608-8.932-.916-.766,0-2.06-.075-3.892-.229-1.832-.15-3.056-.379-3.664-.687h-3.893c-.458.308-1.299.458-2.519.458h-1.832c-1.07,0-1.832.079-2.29.229-1.528,18.627-2.29,41.145-2.29,67.555,0,10.076.15,25.19.458,45.342.304,20.152.458,35.191.458,45.113,2.594,0,4.959.114,7.099.344,2.136.229,3.664.344,4.58.344,3.206.458,6.791.687,10.764.687.762-.304,1.982-.458,3.664-.458,1.523,0,2.668-.075,3.434-.229-.457-5.954-.686-11.983-.686-18.092,0-7.478.229-14.96.686-22.441.305-7.328.459-12.899.459-16.717l-.229-6.642c0-9.16.836-13.74,2.518-13.74h.23l1.145.687c1.373,3.36,3.281,8.552,5.725,15.572.609,1.682,1.523,4.2,2.748,7.557,1.221,3.359,2.365,6.262,3.436,8.702,2.748,7.023,6.869,16.108,12.365,27.251l8.016,17.404c4.73,0,8.547.229,11.449.687,3.664.308,6.641.458,8.932.458.762,0,1.754-.15,2.977-.458,1.221-.304,2.365-.533,3.436-.687l-.229-159.155Z"/>
  <path class="cls-1" d="M382.079,49.922c2.061,7.636,3.092,16.488,3.092,26.564,0,2.902-.154,8.931-.458,18.091,0,1.07-.383,4.122-1.146,9.16-.766,3.818-1.145,7.178-1.145,10.076l-.229.229c-.153,1.682-.841,3.818-2.061,6.412-1.224,2.598-1.986,4.201-2.29,4.81-3.056,7.023-6.834,13.933-11.336,20.725-4.505,6.794-9.274,12.709-14.312,17.747-9.01.608-19.007.916-29.999.916l-29.541-.229c0,.608.075,1.146.229,1.604l-.916-1.604h-5.268l5.038-.458h-.229c-.308-.153-.688-.229-1.146-.229-2.598-21.068-3.893-47.174-3.893-78.318l.229-29.541c.15-6.562.229-16.409.229-29.541l-.229-19.694.458-.916c-.153,0-.229.079-.229.229.458-2.748,9.389-4.122,26.793-4.122l15.114-.229c6.412,0,11.829.458,16.259,1.374,4.426.916,8.662,2.827,12.709,5.725,4.044,2.902,7.976,7.253,11.794,13.053,6.258,11.146,10.419,20.535,12.48,28.167ZM382.88,75.799c0-9.768-.995-18.356-2.978-25.763-1.985-7.403-6.032-16.448-12.137-27.136-6.108-9.006-14.198-15.189-24.274-18.549-2.748.154-6.795.229-12.137.229h-14.198c-11.758,0-21.146.687-28.167,2.061v.229l.229,20.839c0,12.674-.079,22.138-.229,28.396l-.229,28.625c0,30.535,1.22,56.334,3.664,77.402l31.373.229c10.226,0,19.386-.304,27.479-.916,7.021-8.853,12.899-17.021,17.633-24.503,4.73-7.479,8.395-15.189,10.992-23.129v.229l.458-.458h-.229c0-2.897.379-6.258,1.145-10.075.763-5.038,1.146-8.091,1.146-9.16.304-9.464.458-15.647.458-18.549ZM349.79,61.83c3.585,7.481,5.382,15.497,5.382,24.045,0,6.108-2.215,12.903-6.642,20.381l.229-.229c-1.07,2.14-2.862,4.275-5.382,6.412-2.519,2.14-4.619,3.206-6.298,3.206-.458,0-.766-.075-.916-.229-1.831.458-4.658.688-8.473.688-3.514,0-5.879-.763-7.099-2.29-1.224-1.524-1.832-3.814-1.832-6.87,0-1.524.075-3.092.229-4.694.15-1.604.229-3.32.229-5.152v-44.197c1.524-1.524,6.104-2.29,13.74-2.29s13.242,3.743,16.831,11.221ZM352.881,84.043c0-4.58-.766-9.311-2.29-14.198-1.528-4.884-3.818-8.967-6.87-12.251-3.056-3.281-6.72-4.923-10.992-4.923-1.374,0-3.206.154-5.496.458-2.29.308-4.2.537-5.725.687l.229,8.931c.15,1.832.229,4.659.229,8.473,0,3.514-.154,8.931-.458,16.259-.308,7.328-.458,12.902-.458,16.717,0,2.748.265,4.924.801,6.526.533,1.604,1.718,2.634,3.55,3.092.916,0,2.29-.114,4.122-.344,1.832-.229,3.739-.344,5.726-.344.915,0,1.523.079,1.831.229h.229c.762,0,2.365-1.066,4.809-3.206,2.44-2.136,3.969-3.814,4.58-5.038,4.122-6.716,6.184-13.739,6.184-21.068Z"/>
</svg>