<?xml version="1.0" encoding="UTF-8"?>
<svg id="Layer_1" data-name="Layer 1" xmlns="http://www.w3.org/2000/svg" viewBox="0 0 205.478 156.64">
  <defs>
    <style>
      .cls-1 {
        fill: #dddce5;
      }
    </style>
  </defs>
  <path class="cls-1" d="M83.82,155.98c-1.76,0-4.256.145-7.48.439l-7.04.221c-3.668,0-5.906-.516-6.71-1.54-.808-1.024-1.21-3.444-1.21-7.261l.22-20.02c0-22.732-.66-40.844-1.98-54.34l-3.3,9.24c-1.616,5.136-3.08,9.24-4.4,12.32-1.32,3.08-3.08,5.721-5.28,7.92-2.936,0-6.676-6.744-11.22-20.24-.44-1.024-.808-2.052-1.1-3.08-.296-1.024-.66-2.052-1.1-3.08-.588,7.48-.88,15.768-.88,24.859,0,11.736.732,29.48,2.2,53.24-.588,1.32-4.18,1.98-10.78,1.98l-10.78-.221-8.36.221c-2.056,0-3.338-1.248-3.85-3.74-.516-2.492-.77-6.672-.77-12.54v-45.1c0-9.973.145-25.081.44-45.32L.66,4.62l.66-1.32c2.052-1.024,6.304-1.54,12.76-1.54l10.78.22c1.905.147,4.252.22,7.04.22,1.905,1.908,3.444,4.256,4.62,7.04,1.172,2.788,2.42,6.38,3.74,10.78,2.2,7.775,4.62,13.127,7.26,16.06,1.464-2.932,2.932-7.624,4.4-14.08,1.172-4.984,2.345-8.982,3.52-11.99,1.172-3.004,3.004-5.754,5.5-8.25,1.464.296,2.712.44,3.74.44,4.544,0,9.24-.22,14.08-.66,1.464,0,3.664-.11,6.6-.33,2.932-.22,5.572-.33,7.92-.33l1.1,1.1c-.296,4.4-.439,10.928-.439,19.58,0,5.28.144,13.2.439,23.76l.22,23.32c0,16.576-.22,33.22-.659,49.94-.296,16.428-.44,28.748-.44,36.96l-1.1,1.101-8.58-.66ZM91.3,154.22c0-8.801.145-22.293.44-40.48.439-13.64.66-27.352.66-41.14l-.221-25.08c-.295-11.145-.439-19.504-.439-25.08,0-8.652.145-15.104.439-19.36-1.907,0-3.85.076-5.83.22-1.979.148-3.85.295-5.609.44-6.748.588-11.588.88-14.52.88-1.616,0-3.3-.144-5.06-.44-1.32,1.616-2.458,3.888-3.41,6.82-.956,2.936-2.166,7.04-3.63,12.32-.88,3.08-1.76,6.05-2.64,8.91-.88,2.86-1.76,4.73-2.64,5.61l-.88.44c-1.76,0-3.155-1.1-4.18-3.3-1.028-2.2-2.276-5.865-3.74-11-1.32-4.544-2.605-8.395-3.85-11.55-1.248-3.152-2.826-5.83-4.73-8.03l-13.42-.22c-6.16,0-11.22.368-15.18,1.1,0,20.536-.22,41.14-.66,61.82-.148,6.896-.296,15.548-.44,25.96-.148,10.415-.22,22.588-.22,36.52,0,8.216.44,16.28,1.32,24.2v.44l16.94.22c5.572,0,9.752-.22,12.54-.66-1.468-23.172-2.2-40.404-2.2-51.7,0-11,.512-21.192,1.54-30.58v-.44l.66.22,1.54-.66-.22.66h.22c0,.88.88,3.85,2.64,8.91,1.76,5.06,3.63,9.756,5.61,14.08,1.98,4.327,3.334,6.49,4.07,6.49,2.052-2.492,4.252-7.845,6.6-16.061,1.464-4.692,2.64-8.174,3.52-10.45.88-2.272,1.98-4.07,3.3-5.39.292.295.88.588,1.76.88,1.024,8.36,1.685,16.868,1.98,25.521.292,8.655.44,19.436.44,32.34l-.22,14.52c0,4.108.22,8.141.66,12.101h8.14c1.76-.44,4.18-.66,7.26-.66,4.4,0,8.285.22,11.66.66Z"/>
  <path class="cls-1" d="M205.038,148.72c-.296,3.228-1.176,5.575-2.641,7.04-6.308,0-15.619.144-27.939.439-12.616.292-22,.44-28.16.44-11.44,0-22.808-.44-34.1-1.32l-1.101-1.32c0-10.852-.147-27.132-.439-48.84-.44-16.28-.66-32.56-.66-48.84,0-21.12.439-38.72,1.319-52.8l1.101-.88c7.185-.44,18.04-.804,32.56-1.1,4.84,0,12.101-.145,21.78-.44,1.904,0,5.06-.144,9.46-.44,4.4-.44,8.8-.66,13.2-.66,4.984,0,9.752.44,14.3,1.32,1.024,2.2,1.54,5.28,1.54,9.24,0,2.788-.147,6.82-.44,12.1l-.22,11.22c-1.027,2.2-7.92,3.3-20.68,3.3l-18.7-.22c-2.2,0-5.5.147-9.9.44l-9.239.22c0,1.32-.148,3.3-.44,5.94-.296,4.4-.439,7.7-.439,9.9,0,3.08.292,5.795.88,8.14,3.664.588,8.064.88,13.2.88l13.199-.22c1.173,2.496,1.761,5.94,1.761,10.34,0,3.668-.076,6.38-.221,8.14l-.22,8.359c0,2.349.072,4.036.22,5.061-.88,1.616-4.548,2.42-11,2.42l-9.239-.22c-.881.296-1.946.478-3.19.55-1.248.076-2.31.186-3.19.33-.88,4.4-1.319,9.021-1.319,13.86,0,3.96.364,7.995,1.1,12.1,4.4,0,8.25.076,11.55.22,3.301.148,6.051.296,8.25.44,10.853.588,18.92.88,24.2.88,2.784,0,7.112-.145,12.98-.439l1.1,1.1v.439c.145,2.349.22,5.721.22,10.12,0,5.28-.147,9.536-.439,12.761ZM203.278,136.4c0-4.252-.076-7.48-.221-9.68-2.348.147-5.867.22-10.56.22-5.136,0-12.836-.292-23.101-.88-2.64-.145-5.867-.292-9.68-.44-3.815-.145-8.216-.22-13.2-.22-1.615,0-2.42-4.252-2.42-12.76,0-6.601.22-11.072.66-13.42.44-2.345,1.502-3.851,3.19-4.511,1.684-.659,4.874-.989,9.569-.989,2.053,0,3.593.075,4.62.22l4.62.22c2.2,0,3.885-.22,5.06-.66l.221-18.7c0-3.372-.221-6.82-.66-10.34l-12.54-.22c-.735,0-1.76.076-3.08.22-1.32.147-2.936.22-4.84.22-5.576,0-8.36-2.564-8.36-7.7s.072-9.46.221-12.98c.144-3.52.659-6.232,1.539-8.14l.221-.22c2.344,0,6.16-.144,11.439-.44,4.984-.292,8.872-.44,11.66-.44l12.98.22c8.064,0,15.324-.584,21.779-1.76l.221-10.34c.292-4.692.439-8.285.439-10.78,0-3.96-.147-6.892-.439-8.8-3.521-.584-7.848-.88-12.98-.88-3.52,0-8.508.148-14.96.44-3.815.295-6.455.44-7.92.44-9.388.295-16.5.44-21.34.44-14.228.296-24.86.66-31.9,1.1-.88,13.936-1.319,31.315-1.319,52.14,0,16.135.22,32.119.659,47.96.293,21.415.44,37.476.44,48.18,11.292.88,22.44,1.32,33.44,1.32,6.012,0,15.18-.145,27.5-.44,12.024-.292,21.119-.439,27.279-.439,1.173-5.133,1.761-10.853,1.761-17.16Z"/>
</svg>